<?xml version="1.0" encoding="UTF-8"?>
<svg width="17px" height="17px" viewBox="0 0 17 17" version="1.1" xmlns="http://www.w3.org/2000/svg" xmlns:xlink="http://www.w3.org/1999/xlink">
    <!-- Generator: Sketch 49.3 (51167) - http://www.bohemiancoding.com/sketch -->
    <title>Icon</title>
    <desc>Created with Sketch.</desc>
    <defs></defs>
    <g id="Page-1" stroke="none" stroke-width="1" fill="none" fill-rule="evenodd">
        <g id="Components" transform="translate(-386.000000, -991.000000)" fill="#B2B2B2">
            <g id="Social" transform="translate(100.000000, 849.000000)">
                <g id="Social-Stroked" transform="translate(255.000000, 2.000000)">
                    <g id="Google-" transform="translate(0.000000, 127.612245)">
                        <path d="M45.3671837,17.0316957 L45.3671837,19.3212033 L43.9998367,19.3212033 L43.9998367,17.0316957 L41.9590204,17.0316957 L41.9590204,15.5206208 L43.9998367,15.5206208 L43.9998367,13.2311132 L45.3671837,13.2311132 L45.3671837,15.5206208 L47.408,15.5206208 L47.408,17.0316957 L45.3671837,17.0316957 Z M36.163102,19.0006722 C37.1426939,19.0006722 37.4692245,17.9932889 37.4692245,17.0545908 C37.4692245,15.8640469 36.8365714,13.9179655 35.5508571,13.9179655 C34.5916735,13.9179655 34.2447347,14.9482439 34.2447347,15.8640469 C34.2447347,17.0545908 34.8773878,19.0006722 36.163102,19.0006722 L36.163102,19.0006722 Z M35.8773878,27.1971093 C36.9998367,27.1971093 38.5916735,26.4186767 38.5916735,24.9533919 C38.5916735,23.5110021 37.1426939,22.8928351 36.0610612,22.8928351 C34.8773878,22.8928351 33.3467755,23.5110021 33.3467755,25.0907623 C33.3467755,26.5560472 34.7753469,27.1971093 35.8773878,27.1971093 L35.8773878,27.1971093 Z M37.9182041,12.8876871 C38.5712653,12.8876871 39.2243265,12.9105822 39.8569796,12.9105822 C40.0202449,12.9105822 40.2243265,12.9105822 40.2243265,13.162428 C40.2243265,13.8950704 39.1835102,13.8950704 38.7345306,13.9637556 C39.408,14.4903424 39.6324898,15.5206208 39.6324898,16.4135287 C39.6324898,19.229623 37.652898,19.5959442 37.652898,20.4201669 C37.652898,21.1757044 40.2243265,22.2975631 40.2243265,24.8847067 C40.2243265,27.7694862 37.8365714,28.9829252 35.5916735,28.9829252 C33.652898,28.9829252 31.408,28.0442271 31.408,25.5028737 C31.408,22.8012548 34.0610612,22.0457173 36.0202449,22.0457173 C35.7753469,21.2901798 35.5508571,22.0915074 35.5508571,20.5346423 C33.5916735,20.5346423 32.2039184,19.2525181 32.2039184,16.9859056 C32.2039184,15.1314045 33.2651429,13.780595 34.7957551,13.2311132 C35.6733061,12.9105822 36.9998367,12.8876871 37.9182041,12.8876871 L37.9182041,12.8876871 Z" id="Icon"></path>
                    </g>
                </g>
            </g>
        </g>
    </g>
</svg>